<svg width="72" height="72" viewBox="0 0 72 72" fill="none" xmlns="http://www.w3.org/2000/svg">
<rect width="72" height="72" rx="36" fill="#23A6F0"/>
<g clip-path="url(#clip0_1479_22445)">
<path fill-rule="evenodd" clip-rule="evenodd" d="M46.9585 45.3334C46.9585 45.3334 48.5002 45.3334 48.5002 43.7779C48.5002 42.2223 46.9585 37.5556 40.7918 37.5556C34.6252 37.5556 33.0835 42.2223 33.0835 43.7779C33.0835 45.3334 34.6252 45.3334 34.6252 45.3334H46.9585ZM34.6591 43.7779H46.9246C46.9318 43.777 46.939 43.776 46.9462 43.7747L46.9585 43.7716C46.9554 43.361 46.701 42.1694 45.7868 41.0961C44.9358 40.0896 43.4404 39.1112 40.7918 39.1112C38.1448 39.1112 36.6494 40.0912 35.7968 41.0961C34.8826 42.1694 34.6267 43.3625 34.6252 43.7716C34.6364 43.7738 34.6478 43.7759 34.6591 43.7779ZM40.7918 34.4445C41.6096 34.4445 42.3938 34.1167 42.9721 33.5333C43.5503 32.9499 43.8752 32.1585 43.8752 31.3334C43.8752 30.5083 43.5503 29.717 42.9721 29.1335C42.3938 28.5501 41.6096 28.2223 40.7918 28.2223C39.9741 28.2223 39.1898 28.5501 38.6116 29.1335C38.0333 29.717 37.7085 30.5083 37.7085 31.3334C37.7085 32.1585 38.0333 32.9499 38.6116 33.5333C39.1898 34.1167 39.9741 34.4445 40.7918 34.4445ZM45.4168 31.3334C45.4168 31.9462 45.2972 32.5531 45.0648 33.1193C44.8323 33.6855 44.4917 34.1999 44.0622 34.6332C43.6327 35.0666 43.1229 35.4103 42.5617 35.6449C42.0006 35.8794 41.3992 36.0001 40.7918 36.0001C40.1845 36.0001 39.583 35.8794 39.0219 35.6449C38.4608 35.4103 37.9509 35.0666 37.5215 34.6332C37.092 34.1999 36.7513 33.6855 36.5189 33.1193C36.2865 32.5531 36.1668 31.9462 36.1668 31.3334C36.1668 30.0957 36.6541 28.9088 37.5215 28.0336C38.3888 27.1584 39.5652 26.6667 40.7918 26.6667C42.0185 26.6667 43.1948 27.1584 44.0622 28.0336C44.9296 28.9088 45.4168 30.0957 45.4168 31.3334ZM34.5265 37.9912C33.9098 37.7953 33.2741 37.6664 32.6302 37.607C32.2685 37.5723 31.9052 37.5551 31.5418 37.5556C25.3752 37.5556 23.8335 42.2223 23.8335 43.7779C23.8335 44.8154 24.3469 45.3334 25.3752 45.3334H31.8748C31.6463 44.8478 31.5323 44.3154 31.5418 43.7779C31.5418 42.2067 32.123 40.6014 33.2222 39.2605C33.5969 38.8032 34.0332 38.3754 34.5265 37.9912ZM31.4185 39.1112C28.847 39.1423 27.387 40.1067 26.5468 41.0961C25.6265 42.1756 25.3752 43.3719 25.3752 43.7779H30.0002C30.0002 42.1523 30.4981 40.533 31.4185 39.1112ZM26.146 32.1112C26.146 30.8735 26.6333 29.6865 27.5006 28.8114C28.368 27.9362 29.5444 27.4445 30.771 27.4445C31.9976 27.4445 33.174 27.9362 34.0414 28.8114C34.9087 29.6865 35.396 30.8735 35.396 32.1112C35.396 33.3489 34.9087 34.5359 34.0414 35.411C33.174 36.2862 31.9976 36.7779 30.771 36.7779C29.5444 36.7779 28.368 36.2862 27.5006 35.411C26.6333 34.5359 26.146 33.3489 26.146 32.1112ZM30.771 29.0001C29.9532 29.0001 29.169 29.3279 28.5907 29.9113C28.0125 30.4948 27.6877 31.2861 27.6877 32.1112C27.6877 32.9363 28.0125 33.7276 28.5907 34.3111C29.169 34.8945 29.9532 35.2223 30.771 35.2223C31.5887 35.2223 32.373 34.8945 32.9512 34.3111C33.5295 33.7276 33.8543 32.9363 33.8543 32.1112C33.8543 31.2861 33.5295 30.4948 32.9512 29.9113C32.373 29.3279 31.5887 29.0001 30.771 29.0001Z" fill="white"/>
</g>
<defs>
<clipPath id="clip0_1479_22445">
<rect width="24" height="19.7647" fill="white" transform="translate(24 26)"/>
</clipPath>
</defs>
</svg>
